<svg xmlns="http://www.w3.org/2000/svg" width="197" height="90" viewBox="0 0 197 90">
  <g id="Group_3883" data-name="Group 3883" transform="translate(-1513 -1166)">
    <g id="icons8-adobe-illustrator" transform="translate(1614 1160)">
      <path id="Path_1967" data-name="Path 1967" d="M6,16A10,10,0,0,1,16,6H86A10,10,0,0,1,96,16V86A10,10,0,0,1,86,96H16A10,10,0,0,1,6,86Z" fill="#ff5722"/>
      <path id="Path_1968" data-name="Path 1968" d="M9,9V85.23H85.23V9ZM46.33,64.9l-1.936-7.394H34.443L32.509,64.9H24.792l11.29-36.131h6.675L54.123,64.9Zm18.191,0H57.475V38.054h7.046Zm-.757-31.117A3.822,3.822,0,0,1,57.15,31.1a3.635,3.635,0,0,1,1.042-2.681,4.23,4.23,0,0,1,5.56,0A3.621,3.621,0,0,1,64.793,31.1,3.709,3.709,0,0,1,63.764,33.785Z" transform="translate(3.885 3.885)" fill="#1c0802"/>
      <path id="Path_1969" data-name="Path 1969" d="M19.639,38.568h9.1L24.191,20.629Z" transform="translate(19 19.129)" fill="#1c0802"/>
    </g>
    <g id="icons8-figma" transform="translate(1502 1163)">
      <path id="Path_2181" data-name="Path 2181" d="M43.143,33H26A15,15,0,0,1,11,18h0A15,15,0,0,1,26,3H43.143Z" transform="translate(0 0)" fill="#e64a19"/>
      <path id="Path_2182" data-name="Path 2182" d="M41,47H26A15,15,0,0,1,11,32h0A15,15,0,0,1,26,17H41Z" transform="translate(0 16)" fill="#7c4dff"/>
      <path id="Path_2183" data-name="Path 2183" d="M26,61h0A15,15,0,0,1,11,46h0A15,15,0,0,1,26,31H41V46A15,15,0,0,1,26,61Z" transform="translate(0 32)" fill="#66bb6a"/>
      <path id="Path_2184" data-name="Path 2184" d="M40,33H25V3H40A15,15,0,0,1,55,18h0A15,15,0,0,1,40,33Z" transform="translate(16 0)" fill="#ff7043"/>
      <circle id="Ellipse_163" data-name="Ellipse 163" cx="15" cy="15" r="15" transform="translate(41 33)" fill="#29b6f6"/>
    </g>
  </g>
</svg>
